<svg id="Layer_1" data-name="Layer 1" xmlns="http://www.w3.org/2000/svg" viewBox="0 0 510.24 164.55"><defs><style>.cls-1,.cls-2{fill:#fff;}.cls-1{fill-rule:evenodd;}</style></defs><title>baltas2</title><path class="cls-1" d="M79.6,78.66C67.06,74.4,55.93,71,49.75,71c-13.28,0-14.86,6.79-19.48,12.17-1.48,1.71-2.14,1.25-2.14,1.25C25.9,59.38,56.33,64.37,81,72a72,72,0,0,1,20.11-34.11l16.48,16.48a2.5,2.5,0,0,0,3.51,0l20.63-20.64a2.48,2.48,0,0,0,0-3.51L132,20.46a72.38,72.38,0,0,1,38.79.34l-9.21,8.52V62h24.78c22.73,16.79,14.41,47.63,30.06,58a72.11,72.11,0,0,1-136.75-18L141,118.41c3.19-10.58,6.08-10.82,12.81-15.25-8.51-1-14.64,9.93-36.67,4.67l-31.9-8.61A13,13,0,0,1,79,96.44c-.18-2.1-.28-4.22-.28-6.36a72.83,72.83,0,0,1,.9-11.42ZM81,72c-.57,2.19-1,4.43-1.4,6.7,12,4.08,25.36,8.93,36.89,12.26,36,11.5,55.07,2.6,71.18,13,.36,2.47,2.94,19.85-2.36,20.36-3.09-.87-4.25-.74-4.45-1.47-2.82-10.55,1-14.83-12.57-18,6,6.62,9.7,8.57,8.35,20.76l11.82,3.14c3.23-4.5,5.42-8.26,4.55-14.38.11-4.82.26-5.46.88-13.45-7.29-6.17-23.21-16.33-48.13-27.67-16.36-7.45-44.25-5.25-57.57,1.06h0c-2.4-.79-4.8-1.56-7.19-2.29Zm-1.32,30c-.3-1.82-.54-3.65-.7-5.51C71.44,90.24,71.3,76.57,59.12,76.2c9.37,3.35,10.33,12,8.38,22.47l12.18,3.27ZM51.94,78.57a13.18,13.18,0,1,0,9.32,16.14,13.18,13.18,0,0,0-9.32-16.14ZM92.86,75.8h0c7.15,2.4,14.21,4.84,20.78,6.76,12.2,3.57,29.88,7.86,41.94,11a24.12,24.12,0,0,0,8.3-1.9c-5.61-12.48-27.92-19.52-45.1-20.14-4-.29-23.84,2.52-25.91,4.23Zm17.32-45.28c1.89-1.3,3.86-2.51,5.88-3.62-2,1.11-4,2.32-5.88,3.61Zm6.49-4,1.23-.64-1.23.64Zm45.68,81.6a13.18,13.18,0,1,0,9.32,16.14A13.18,13.18,0,0,0,162.35,108.16Z"/><path class="cls-1" d="M260.88,107.61V75h19.59V59.49H260.88V38.94H244.55V59.49H233.74V75h10.81V112.4c1.1,13.5,8.9,19.78,16.33,21.52,6,1.42,16,.89,19.59-1.38l4.55-2.87V114.5l-4.55,2.31C271.67,121.28,260.88,117.48,260.88,107.61Z"/><path class="cls-1" d="M322.07,107.61V75h19.59V59.49H322.07V38.94H305.74V59.49H294.93V75h10.81V112.4c1.11,13.5,8.9,19.78,16.33,21.52,6,1.42,16,.89,19.59-1.38l4.55-2.87V114.5l-4.55,2.31C332.86,121.28,322.07,117.48,322.07,107.61Z"/><rect class="cls-2" x="360.1" y="59.18" width="17.02" height="74.11"/><path class="cls-1" d="M438.67,59.49l27,62.1c-3.83,16.15-12.85,27.57-24,37l17.76,5.92c20.4-21.56,32.43-61.29,50.8-105.06H492l-16.26,43.09L458.19,59.49Z"/><path class="cls-1" d="M398.63,67.61h-10V83.5h10v49.8H416V83.5h17V67.61H416c-1.65-20.17,4.51-30,21.21-26V25c-15.48-.08-24.22,3.74-29.79,9.38C401.73,40.23,399.11,51.87,398.63,67.61Z"/><polygon class="cls-1" points="371.33 22.82 386.22 33.95 374.85 48.53 359.96 37.4 371.33 22.82"/><polygon class="cls-1" points="0 38.73 0 117.05 0 133.3 16.96 133.3 43.47 133.3 43.47 117.05 19.21 117.05 19.21 38.73 0 38.73"/><path class="cls-1" d="M110.18,30.52Zm-5.67-10.39a6.23,6.23,0,0,0,1.18,2.81H103.8l.25,2.16,2.85,0a5.36,5.36,0,0,1,.86,2.09c.22,1.93-1.27,3.31-3.05,4.23l1.6,1.94c1.25-1,2.54-1.93,3.87-2.84v-.05a3.86,3.86,0,0,0,2.3-3.59,7.2,7.2,0,0,0-.41-1.82L118,25l-.25-2.16-6.9,0a6.1,6.1,0,0,1-1.16-2.61c-.24-2,1.73-3.45,4.89-3.47s5.19,1.13,5.65,3.62l5.15,0c-.62-5.4-5.9-6.81-11.47-6.77C109,13.68,104,15.93,104.51,20.13Z"/><path class="cls-1" d="M170.8,20.8A72.28,72.28,0,0,1,217.21,62h.34V31.42l-5.34-4.94V15.29h-6v5.64L188.43,4.49Z"/><path class="cls-1" d="M217.21,62H194.15c20.4,15.17,15.7,30,27.88,39.27A72.52,72.52,0,0,0,217.21,62Z"/><path class="cls-1" d="M119.16,50.41l18.65-18.66a2.23,2.23,0,0,0,0-3.17L130.21,21a71.51,71.51,0,0,0-20,9.55,8.8,8.8,0,0,1,3.29-.62c2.24,0,4.46.76,6.73.75a11.6,11.6,0,0,0,5.14-1.38l1.78,3.23a12.6,12.6,0,0,1-6.52,1.66c-2.23,0-6.07-1.09-8.61-1.07a10,10,0,0,0-4.93,1.17l-.75-.91q-2.07,1.62-4,3.38L116,50.41A2.26,2.26,0,0,0,119.16,50.41Z"/><path class="cls-1" d="M94.15,21.2,110.71,4.64a2.25,2.25,0,0,1,3.17,0L130.21,21l1.8-.51L112.28.72a2.5,2.5,0,0,0-3.51,0L93,16.47l-4.89,4.89a2.48,2.48,0,0,0,0,3.51l6.38,6.37,6.6,6.61,1.2-1.12-7.65-7.65-2.61-2.6a2.26,2.26,0,0,1,0-3.18l2.1-2.1ZM99.35,12a1,1,0,1,1,1.35,1.34,1,1,0,0,1-1.35,0A1,1,0,0,1,99.35,12Z"/><path class="cls-1" d="M99.62,13a.57.57,0,0,0,.8,0,.57.57,0,1,0-.8-.8A.57.57,0,0,0,99.62,13Z"/><rect class="cls-2" x="171.57" y="37.84" width="7.08" height="9.01"/><rect class="cls-2" x="186.37" y="48.09" width="7.78" height="13.88"/></svg>