<svg xmlns="http://www.w3.org/2000/svg" width="22.705" height="23.663" viewBox="0 0 22.705 23.663"><g transform="translate(-10.359 0.002)"><g transform="translate(10.359 -0.002)"><g transform="translate(0 0)"><path d="M31.97,12.136a.693.693,0,0,1,0-.613l.883-1.805a2.054,2.054,0,0,0-.886-2.728l-1.775-.942a.693.693,0,0,1-.36-.5l-.347-1.979a2.054,2.054,0,0,0-2.32-1.686l-1.99.281a.693.693,0,0,1-.583-.189L23.146.582a2.054,2.054,0,0,0-2.868,0l-1.444,1.4a.694.694,0,0,1-.583.189l-1.99-.281a2.054,2.054,0,0,0-2.32,1.686l-.347,1.979a.694.694,0,0,1-.36.5l-1.775.942a2.054,2.054,0,0,0-.886,2.728l.883,1.805a.693.693,0,0,1,0,.613l-.883,1.805a2.054,2.054,0,0,0,.886,2.728l1.775.942a.693.693,0,0,1,.36.5l.347,1.979a2.053,2.053,0,0,0,2.025,1.707,2.11,2.11,0,0,0,.3-.021l1.99-.281a.693.693,0,0,1,.583.189l1.444,1.4a2.054,2.054,0,0,0,2.868,0l1.444-1.4a.694.694,0,0,1,.583-.189l1.99.281a2.054,2.054,0,0,0,2.32-1.686l.347-1.979a.694.694,0,0,1,.36-.5l1.775-.942a2.054,2.054,0,0,0,.886-2.728ZM18.982,5.688a2.5,2.5,0,1,1-2.5,2.5A2.5,2.5,0,0,1,18.982,5.688ZM17.691,16.816a.682.682,0,0,1-.965-.965l9.007-9.007a.682.682,0,1,1,.965.965Zm6.751,1.156a2.5,2.5,0,1,1,2.5-2.5A2.5,2.5,0,0,1,24.441,17.971Z" transform="translate(-10.359 0.002)"/></g></g><g transform="translate(23.304 14.332)"><path d="M291.589,310.141a1.137,1.137,0,1,0,1.137,1.137A1.139,1.139,0,0,0,291.589,310.141Z" transform="translate(-290.452 -310.141)"/></g><g transform="translate(17.845 7.053)"><g transform="translate(0)"><path d="M173.47,152.646a1.137,1.137,0,1,0,1.137,1.137A1.139,1.139,0,0,0,173.47,152.646Z" transform="translate(-172.333 -152.646)"/></g></g></g></svg>