<svg id="Layer_3" data-name="Layer 3" xmlns="http://www.w3.org/2000/svg" width="37.594" height="37.594" viewBox="0 0 37.6 37.6"><defs><style>.cls-1{fill:#fff;}</style></defs><title>ig</title><path class="cls-1" d="M23.17,18.8a4.36,4.36,0,1,1-4.36-4.36A4.37,4.37,0,0,1,23.17,18.8Zm6.3-5.29c.06,1.38.07,1.8.07,5.29s0,3.91-.07,5.29A7.51,7.51,0,0,1,29,26.52,4.24,4.24,0,0,1,28,28a4.11,4.11,0,0,1-1.51,1,7.24,7.24,0,0,1-2.43.45c-1.38.06-1.79.07-5.29.07s-3.91,0-5.29-.07A7.3,7.3,0,0,1,11.09,29a4.34,4.34,0,0,1-2.48-2.49,7.24,7.24,0,0,1-.45-2.43c-.06-1.38-.08-1.79-.08-5.29s0-3.91.08-5.29a7.3,7.3,0,0,1,.45-2.43A4.37,4.37,0,0,1,11.09,8.6a7.3,7.3,0,0,1,2.43-.45c1.38-.06,1.8-.08,5.29-.08s3.91,0,5.29.08a7.24,7.24,0,0,1,2.43.45,4.11,4.11,0,0,1,1.51,1,4.2,4.2,0,0,1,1,1.5A7.57,7.57,0,0,1,29.47,13.51ZM25.53,18.8a6.72,6.72,0,1,0-6.72,6.72A6.72,6.72,0,0,0,25.53,18.8Zm1.84-7a1.57,1.57,0,1,0-1.57,1.57A1.57,1.57,0,0,0,27.37,11.82Zm10.24,7A18.8,18.8,0,1,1,18.81,0,18.8,18.8,0,0,1,37.61,18.8Zm-5.71,0c0-3.55,0-4-.08-5.39a9.32,9.32,0,0,0-.61-3.18A6.71,6.71,0,0,0,27.39,6.4a10,10,0,0,0-3.18-.61c-1.4-.06-1.84-.08-5.4-.08s-4,0-5.39.08a9.83,9.83,0,0,0-3.18.61,6.69,6.69,0,0,0-3.83,3.83,9.83,9.83,0,0,0-.61,3.18c-.06,1.39-.08,1.84-.08,5.39s0,4,.08,5.4a10,10,0,0,0,.61,3.18,6.71,6.71,0,0,0,3.83,3.82,9.32,9.32,0,0,0,3.18.61c1.39.07,1.84.08,5.39.08s4,0,5.4-.08a9.43,9.43,0,0,0,3.18-.61,6.73,6.73,0,0,0,3.82-3.82,9.43,9.43,0,0,0,.61-3.18C31.89,22.8,31.9,22.36,31.9,18.8Z" transform="translate(-0.01 0)"/></svg>