<svg xmlns="http://www.w3.org/2000/svg" width="37.594" height="37.594" viewBox="0 0 37.594 37.594"><defs><style>.a{fill:#fff;}</style></defs><path class="a" d="M164.712,210.211l-6.091,6.449,5.543-3.041,2.9,3.041,6.057-6.449-5.482,2.988Zm0,0" transform="translate(-146.974 -194.776)"/><path class="a" d="M18.8,0a18.8,18.8,0,1,0,18.8,18.8A18.8,18.8,0,0,0,18.8,0Zm.147,28.859A12.072,12.072,0,0,1,15.6,28.39L11.81,30.545V26.491a10.265,10.265,0,0,1-4.16-8.17c0-5.82,5.057-10.538,11.294-10.538S30.238,12.5,30.238,18.321,25.182,28.859,18.944,28.859Zm0,0"/></svg>