<svg xmlns="http://www.w3.org/2000/svg" width="37.594" height="37.594" viewBox="0 0 37.594 37.594"><defs><style>.a{fill:#fff;}</style></defs><path class="a" d="M18.8,0a18.8,18.8,0,1,0,18.8,18.8A18.8,18.8,0,0,0,18.8,0Zm.4,29.741h0a11.246,11.246,0,0,1-5.376-1.369L7.851,29.936l1.6-5.828A11.251,11.251,0,1,1,19.2,29.741Zm0,0"/><path class="a" d="M143.425,124.469a9.352,9.352,0,0,0-7.925,14.322l.222.354-.945,3.45,3.539-.928.342.2a9.336,9.336,0,0,0,4.759,1.3h0a9.351,9.351,0,0,0,0-18.7Zm5.5,13.366a2.9,2.9,0,0,1-1.9,1.336,3.858,3.858,0,0,1-1.771-.111,16.24,16.24,0,0,1-1.6-.592,12.53,12.53,0,0,1-4.8-4.243,5.466,5.466,0,0,1-1.148-2.907,3.151,3.151,0,0,1,.984-2.344,1.033,1.033,0,0,1,.75-.352c.187,0,.375,0,.539.01s.4-.066.632.482.8,1.946.867,2.086a.518.518,0,0,1,.024.492,8.009,8.009,0,0,1-.7.961c-.125.155-.287.292-.123.574a8.473,8.473,0,0,0,1.564,1.947,7.685,7.685,0,0,0,2.261,1.395c.281.141.445.117.609-.07s.7-.821.89-1.1.375-.234.632-.141,1.64.774,1.921.914.468.211.539.328A2.344,2.344,0,0,1,148.925,137.835Zm0,0" transform="translate(-124.226 -115.33)"/></svg>