<svg xmlns="http://www.w3.org/2000/svg" width="37.594" height="37.594" viewBox="0 0 37.594 37.594"><defs><style>.a{fill:#fff;}</style></defs><path class="a" d="M224.113,215.082l6.114-3.522-6.114-3.522Zm0,0" transform="translate(-207.658 -192.764)"/><path class="a" d="M18.8,0a18.8,18.8,0,1,0,18.8,18.8A18.8,18.8,0,0,0,18.8,0ZM30.542,18.816a31.024,31.024,0,0,1-.484,5.65,2.943,2.943,0,0,1-2.071,2.07c-1.838.484-9.191.484-9.191.484s-7.334,0-9.191-.5a2.944,2.944,0,0,1-2.071-2.071,30.888,30.888,0,0,1-.484-5.65,31,31,0,0,1,.484-5.65,3,3,0,0,1,2.071-2.09c1.838-.484,9.191-.484,9.191-.484s7.353,0,9.191.5a2.944,2.944,0,0,1,2.071,2.071A29.441,29.441,0,0,1,30.542,18.816Zm0,0"/></svg>