<svg xmlns="http://www.w3.org/2000/svg" width="78.451" height="78.451" viewBox="0 0 78.451 78.451"><defs><style>.a{fill:#e36a66;}</style></defs><g transform="translate(18.627 9.857)"><path class="a" d="M179.148,65.2a2.956,2.956,0,0,0-4.181,0L139.5,100.568l-12.8-13.9a2.957,2.957,0,1,0-4.35,4.005l14.882,16.162a2.953,2.953,0,0,0,2.112.953h.063a2.96,2.96,0,0,0,2.087-.862l37.649-37.55A2.956,2.956,0,0,0,179.148,65.2Z" transform="translate(-121.568 -64.327)"/></g><path class="a" d="M75.494,36.269a2.956,2.956,0,0,0-2.957,2.957A33.312,33.312,0,1,1,39.225,5.913a2.957,2.957,0,1,0,0-5.913A39.225,39.225,0,1,0,78.451,39.225,2.957,2.957,0,0,0,75.494,36.269Z"/></svg>