<svg xmlns="http://www.w3.org/2000/svg" width="23.368" height="23.149" viewBox="0 0 23.368 23.149"><defs><style>.a{fill:#e05955;}</style></defs><path class="a" d="M118.082,14.181c2.894,0,5.239-2.746,5.239-6.132,0-4.7-2.346-6.132-5.239-6.132s-5.239,1.436-5.239,6.132C112.843,11.435,115.189,14.181,118.082,14.181Z" transform="translate(-106.398 -1.916)"/><path class="a" d="M23.253,230.158,20.61,224.2a1.327,1.327,0,0,0-.6-.636l-4.1-2.135a.264.264,0,0,0-.281.024,6.472,6.472,0,0,1-7.89,0,.265.265,0,0,0-.282-.024l-4.1,2.135a1.326,1.326,0,0,0-.6.636L.114,230.158a1.322,1.322,0,0,0,1.208,1.858H22.045a1.322,1.322,0,0,0,1.208-1.858Z" transform="translate(0.001 -208.867)"/></svg>