<svg xmlns="http://www.w3.org/2000/svg" width="23" height="23" viewBox="0 0 23 23"><path d="M21.316,2.091H4.182a.512.512,0,0,0-.147.034L3.614.741a1.045,1.045,0,0,0-1-.741H.523A.523.523,0,0,0,0,.523V1.568a.523.523,0,0,0,.523.523H1.839L5.105,12.824l-1.22,1.423a2.179,2.179,0,0,0-.477,2.044,2.078,2.078,0,0,0,2,1.482H20.386a.523.523,0,0,0,.523-.523V16.2a.523.523,0,0,0-.523-.523H5.409l1.657-1.933a1.037,1.037,0,0,0,.1-.158H17.3a2.092,2.092,0,0,0,1.892-1.2L22.84,4.639A1.7,1.7,0,0,0,23,3.922V3.774A1.684,1.684,0,0,0,21.316,2.091Z" fill="#e05955"/><circle cx="2.091" cy="2.091" r="2.091" transform="translate(4.182 18.818)" fill="#e05955"/><circle cx="2.091" cy="2.091" r="2.091" transform="translate(16.727 18.818)" fill="#e05955"/></svg>