<svg xmlns="http://www.w3.org/2000/svg" width="11.148" height="13.678" viewBox="0 0 11.148 13.678"><path d="M12.754,5.129H12.29V3.42A3.581,3.581,0,0,0,8.574,0,3.581,3.581,0,0,0,4.858,3.42v1.71H4.393A1.343,1.343,0,0,0,3,6.412V12.4a1.343,1.343,0,0,0,1.393,1.282h8.361A1.343,1.343,0,0,0,14.148,12.4V6.412A1.343,1.343,0,0,0,12.754,5.129ZM6.1,3.42A2.387,2.387,0,0,1,8.574,1.14a2.387,2.387,0,0,1,2.477,2.28v1.71H6.1Zm3.1,6.111v1.3a.621.621,0,0,1-1.239,0V9.53a1.124,1.124,0,0,1-.619-.981,1.194,1.194,0,0,1,1.239-1.14,1.194,1.194,0,0,1,1.239,1.14A1.124,1.124,0,0,1,9.193,9.53Z" transform="translate(-3)"/></svg>