<svg xmlns="http://www.w3.org/2000/svg" width="13.649" height="13.521" viewBox="0 0 13.649 13.521"><path d="M115.9,9.08a3.352,3.352,0,0,0,3.06-3.582c0-2.743-1.37-3.582-3.06-3.582s-3.06.839-3.06,3.582A3.352,3.352,0,0,0,115.9,9.08Z" transform="translate(-109.079 -1.916)"/><path d="M13.582,226.517l-1.544-3.478a.775.775,0,0,0-.349-.372l-2.4-1.247a.154.154,0,0,0-.164.014,3.78,3.78,0,0,1-4.609,0,.155.155,0,0,0-.164-.014l-2.4,1.247a.775.775,0,0,0-.349.372L.066,226.517A.772.772,0,0,0,.772,227.6h12.1a.772.772,0,0,0,.706-1.085Z" transform="translate(0.001 -214.081)"/></svg>