<svg xmlns="http://www.w3.org/2000/svg" width="24.284" height="24.275" viewBox="0 0 24.284 24.275"><g transform="translate(0.5 -0.35)"><g transform="translate(0 0.85)"><g transform="translate(0 0)"><path d="M11.637,22.185H2.909a.97.97,0,0,1-.97-.97V3.759a.97.97,0,0,1,.97-.97h8.728a.97.97,0,0,0,0-1.94H2.909A2.913,2.913,0,0,0,0,3.759V21.215a2.913,2.913,0,0,0,2.909,2.909h8.728a.97.97,0,0,0,0-1.94Z" transform="translate(0 -0.85)" fill="#e05955"/></g></g><g transform="translate(7.69 5.699)"><path d="M185.4,113.262l-5.9-5.819a.97.97,0,0,0-1.362,1.381l4.214,4.158H171.07a.97.97,0,0,0,0,1.94h11.291l-4.214,4.158a.97.97,0,1,0,1.362,1.381l5.9-5.819a.969.969,0,0,0,0-1.381Z" transform="translate(-170.1 -107.165)" fill="#e05955"/></g></g></svg>