<svg xmlns="http://www.w3.org/2000/svg" width="19.189" height="23" viewBox="0 0 19.189 23"><path d="M92.571,11.079a5.36,5.36,0,0,0,3.917-1.623,5.36,5.36,0,0,0,1.623-3.917,5.361,5.361,0,0,0-1.623-3.917,5.538,5.538,0,0,0-7.834,0,5.36,5.36,0,0,0-1.623,3.917,5.36,5.36,0,0,0,1.623,3.917A5.361,5.361,0,0,0,92.571,11.079Zm0,0" transform="translate(-83.122 0)" fill="#e05955"/><path d="M19.142,253.892a13.682,13.682,0,0,0-.186-1.453,11.452,11.452,0,0,0-.357-1.461,7.218,7.218,0,0,0-.6-1.363,5.143,5.143,0,0,0-.906-1.18,3.993,3.993,0,0,0-1.3-.818,4.5,4.5,0,0,0-1.661-.3,1.686,1.686,0,0,0-.9.382c-.27.176-.586.38-.938.6a5.374,5.374,0,0,1-1.214.535,4.712,4.712,0,0,1-2.969,0A5.362,5.362,0,0,1,6.9,248.3c-.349-.223-.665-.427-.939-.605a1.684,1.684,0,0,0-.9-.382,4.491,4.491,0,0,0-1.661.3,3.99,3.99,0,0,0-1.3.818,5.143,5.143,0,0,0-.905,1.18,7.232,7.232,0,0,0-.6,1.363,11.476,11.476,0,0,0-.357,1.461,13.634,13.634,0,0,0-.186,1.454c-.031.44-.046.9-.046,1.358a3.819,3.819,0,0,0,1.134,2.889,4.083,4.083,0,0,0,2.923,1.066H15.132a4.082,4.082,0,0,0,2.923-1.066,3.817,3.817,0,0,0,1.134-2.89C19.189,254.787,19.173,254.33,19.142,253.892Zm0,0" fill="#e05955" transform="translate(0 -236.207)"/></svg>