<svg xmlns="http://www.w3.org/2000/svg" width="19.072" height="23.401" viewBox="0 0 19.072 23.401"><defs><style>.a{fill:#e05955;}</style></defs><path class="a" d="M19.688,8.775h-.795V5.85A6.126,6.126,0,0,0,12.536,0,6.126,6.126,0,0,0,6.179,5.85V8.775H5.384A2.3,2.3,0,0,0,3,10.969V21.207A2.3,2.3,0,0,0,5.384,23.4h14.3a2.3,2.3,0,0,0,2.384-2.194V10.969A2.3,2.3,0,0,0,19.688,8.775ZM8.3,5.85a4.084,4.084,0,0,1,4.238-3.9,4.084,4.084,0,0,1,4.238,3.9V8.775H8.3ZM13.6,16.3v2.221a1.063,1.063,0,0,1-2.119,0V16.3a1.923,1.923,0,0,1-1.06-1.679,2.042,2.042,0,0,1,2.119-1.95,2.042,2.042,0,0,1,2.119,1.95A1.923,1.923,0,0,1,13.6,16.3Z" transform="translate(-3)"/></svg>