<svg xmlns="http://www.w3.org/2000/svg" width="82.097" height="82.097" viewBox="0 0 82.097 82.097"><g transform="translate(19.561 44.833)"><path d="M126.554,284.8a2.449,2.449,0,0,1,3.275,1.028l4.528,8.384a1.6,1.6,0,0,0,3.014-.762V281.207a1.6,1.6,0,0,0-3.207,0v5.9l-1.514-2.8a5.669,5.669,0,0,0-10.5,4.023l2.935,12.167a21.962,21.962,0,0,0,3.636,7.847l5.751,7.869a1.6,1.6,0,1,0,2.589-1.892l-5.751-7.869a18.767,18.767,0,0,1-3.107-6.706l-2.935-12.167A2.453,2.453,0,0,1,126.554,284.8Z" transform="translate(-121.991 -279.604)"/></g><g transform="translate(31.734 25.273)"><path d="M226.5,175.539a5.425,5.425,0,0,0-2.614.668,5.452,5.452,0,0,0-7.846-2.763,5.452,5.452,0,0,0-7.214-2.7v-7.666a5.459,5.459,0,1,0-10.918,0v2.779a1.6,1.6,0,0,0,3.207,0v-2.779a2.252,2.252,0,0,1,4.5,0V185.7a1.6,1.6,0,1,0,3.207,0v-9.989a2.252,2.252,0,0,1,4.5,0V185.7a1.6,1.6,0,1,0,3.207,0v-7.547a2.252,2.252,0,1,1,4.5,0V185.7a1.6,1.6,0,0,0,3.207,0V181a2.252,2.252,0,1,1,4.5,0v13.53a35.445,35.445,0,0,1-1.626,10.618l-2.262,7.213a1.6,1.6,0,1,0,3.06.96l2.262-7.213a38.649,38.649,0,0,0,1.773-11.577V181A5.465,5.465,0,0,0,226.5,175.539Z" transform="translate(-197.909 -157.619)"/></g><g transform="translate(58.414 0)"><path d="M387.849,8.5a2.683,2.683,0,0,0-2.18-1.837l-4.911-.712-2.2-4.45a2.682,2.682,0,0,0-2.42-1.5h0a2.682,2.682,0,0,0-2.42,1.505l-2.2,4.451-4.911.715a2.7,2.7,0,0,0-1.495,4.6l3.555,3.463-.838,4.892a2.7,2.7,0,0,0,3.917,2.845l4.392-2.311,4.393,2.308a2.7,2.7,0,0,0,3.916-2.847l-.84-4.891,3.553-3.465A2.684,2.684,0,0,0,387.849,8.5Zm-6.665,4.123a2.7,2.7,0,0,0-.776,2.39l.711,4.141L377.4,17.2a2.7,2.7,0,0,0-2.513,0l-3.718,1.956.709-4.141a2.7,2.7,0,0,0-.777-2.389L368.093,9.7l4.158-.605a2.7,2.7,0,0,0,2.032-1.477l1.858-3.768L378,7.613a2.7,2.7,0,0,0,2.033,1.476l4.158.6Z" transform="translate(-364.301 0)"/></g><g transform="translate(29.207 0)"><path d="M205.7,8.5a2.682,2.682,0,0,0-2.18-1.837l-4.911-.712-2.2-4.45A2.683,2.683,0,0,0,193.99,0h0a2.682,2.682,0,0,0-2.42,1.505l-2.2,4.451-4.911.715a2.7,2.7,0,0,0-1.495,4.6l3.555,3.463-.838,4.892a2.7,2.7,0,0,0,3.917,2.845l4.392-2.31,4.393,2.308a2.7,2.7,0,0,0,3.916-2.847l-.84-4.891,3.553-3.465A2.683,2.683,0,0,0,205.7,8.5Zm-6.665,4.123a2.7,2.7,0,0,0-.776,2.39l.711,4.141L195.25,17.2a2.7,2.7,0,0,0-2.513,0l-3.718,1.956.709-4.141a2.7,2.7,0,0,0-.777-2.389L185.942,9.7l4.158-.605a2.7,2.7,0,0,0,2.032-1.477l1.858-3.768,1.86,3.767a2.7,2.7,0,0,0,2.033,1.476l4.158.6Z" transform="translate(-182.15 0)"/></g><g transform="translate(0 0)"><path d="M23.548,8.5a2.683,2.683,0,0,0-2.18-1.837l-4.911-.712L14.26,1.5A2.683,2.683,0,0,0,11.839,0h0a2.682,2.682,0,0,0-2.42,1.505l-2.2,4.451-4.911.715a2.7,2.7,0,0,0-1.495,4.6l3.555,3.463-.838,4.892a2.7,2.7,0,0,0,3.918,2.845l4.392-2.31,4.393,2.308a2.7,2.7,0,0,0,3.916-2.847l-.84-4.891,3.553-3.465A2.683,2.683,0,0,0,23.548,8.5Zm-6.665,4.123a2.7,2.7,0,0,0-.776,2.39l.711,4.141L13.1,17.2a2.7,2.7,0,0,0-2.513,0L6.869,19.159l.709-4.141A2.7,2.7,0,0,0,6.8,12.628L3.792,9.7l4.158-.605A2.7,2.7,0,0,0,9.981,7.614L11.84,3.846,13.7,7.613a2.7,2.7,0,0,0,2.033,1.476l4.158.6Z" transform="translate(0 0)"/></g><g transform="translate(31.734 38.515)"><path d="M200.648,240.67a1.6,1.6,0,1,0,.47,1.134A1.615,1.615,0,0,0,200.648,240.67Z" transform="translate(-197.911 -240.2)"/></g></svg>