<svg xmlns="http://www.w3.org/2000/svg" width="97.512" height="82.306" viewBox="0 0 97.512 82.306"><g transform="translate(0 39.843) rotate(-28)"><g transform="translate(49.647 11.472)"><rect width="2.524" height="2.524"/></g><g transform="translate(49.647 5.582)"><rect width="2.524" height="2.524"/></g><g transform="translate(49.647 17.362)"><rect width="2.524" height="2.524"/></g><g transform="translate(49.647 22.411)"><rect width="2.524" height="2.524"/></g><g transform="translate(49.647 28.301)"><rect width="2.524" height="3.366"/></g><g transform="translate(49.647 34.192)"><rect width="2.524" height="2.524"/></g><g transform="translate(49.647 39.241)"><rect width="2.524" height="3.366"/></g><g transform="translate(8.415 7.265)"><rect width="37.025" height="2.524"/></g><g transform="translate(8.415 38.399)"><rect width="37.025" height="2.524"/></g><g transform="translate(56.378 7.265)"><rect width="18.512" height="2.524"/></g><g transform="translate(56.378 38.399)"><rect width="18.512" height="2.524"/></g><g transform="translate(0 0)"><path d="M83.454,14.145a1.415,1.415,0,0,0,1.414-1.414V1.414A1.415,1.415,0,0,0,83.454,0H1.414A1.415,1.415,0,0,0,0,1.414V12.73a1.415,1.415,0,0,0,1.414,1.414,9.9,9.9,0,1,1,0,19.8A1.415,1.415,0,0,0,0,35.362V46.677a1.415,1.415,0,0,0,1.414,1.414H83.454a1.415,1.415,0,0,0,1.414-1.414V35.362a1.415,1.415,0,0,0-1.414-1.414,9.9,9.9,0,0,1,0-19.8ZM70.806,25.464A12.73,12.73,0,0,0,82.039,36.7v8.566H2.829V36.7a12.73,12.73,0,0,0,0-25.3V2.829h79.21v8.566A12.73,12.73,0,0,0,70.806,25.464Z"/></g><path d="M83.454,14.145a1.415,1.415,0,0,0,1.414-1.414V1.414A1.415,1.415,0,0,0,83.454,0H1.414A1.415,1.415,0,0,0,0,1.414V12.73a1.415,1.415,0,0,0,1.414,1.414,9.9,9.9,0,1,1,0,19.8A1.415,1.415,0,0,0,0,35.362V46.677a1.415,1.415,0,0,0,1.414,1.414H83.454a1.415,1.415,0,0,0,1.414-1.414V35.362a1.415,1.415,0,0,0-1.414-1.414,9.9,9.9,0,0,1,0-19.8ZM70.806,25.464A12.73,12.73,0,0,0,82.039,36.7v8.566H2.829V36.7a12.73,12.73,0,0,0,0-25.3V2.829h79.21v8.566A12.73,12.73,0,0,0,70.806,25.464Z"/></g></svg>