<svg xmlns="http://www.w3.org/2000/svg" width="83.201" height="81.863" viewBox="0 0 83.201 81.863"><path d="M81.733,208.886a6.88,6.88,0,0,0-6.485-2.539,6.874,6.874,0,0,0-8.67-1.3l-.483.28a6.9,6.9,0,0,0-8.165-.794L43.679,212.8l-4.834-.6,6.748-4.835a6.867,6.867,0,0,0-5.176-12.348l-1.458.254a42.035,42.035,0,0,0-16.491,6.663,1.219,1.219,0,1,0,1.368,2.018,39.611,39.611,0,0,1,15.541-6.279l1.457-.254a4.408,4.408,0,0,1,5.1,3.478,4.431,4.431,0,0,1-1.759,4.487l-9.28,6.65a1.219,1.219,0,0,0,.559,2.2l24.881,3.109a1.216,1.216,0,0,0,.783-.167l12.914-7.831a4.439,4.439,0,0,1,5.785,1.053,4.433,4.433,0,0,1-.2,5.711L67.84,229.149a7.007,7.007,0,0,1-4.311,2.253l-34.956,4.45-1.044-1.815-13.172-22.9,5.631-4.326a1.219,1.219,0,1,0-1.485-1.933l-6.433,4.942L.562,217.178a1.219,1.219,0,0,0-.4,1.635l15.153,26.343a1.219,1.219,0,0,0,1.713.419l11.32-7.236,35.488-4.519a9.446,9.446,0,0,0,5.812-3.038l11.78-13.047a6.871,6.871,0,0,0,.3-8.85Zm-22.57-2.248.02-.012a4.452,4.452,0,0,1,4.632.025L51.524,213.78l-3.847-.481Zm1.052,8.228-4.694-.586,12.29-7.128.021-.012a4.435,4.435,0,0,1,4.85.167ZM16.792,242.833,2.855,218.606l9.493-6.068L25.5,235.4l.785,1.364Z" transform="translate(0 -163.904)"/><path d="M97.261,422.389a3.7,3.7,0,1,0,3.7,3.7A3.709,3.709,0,0,0,97.261,422.389Zm0,4.972a1.267,1.267,0,1,1,1.267-1.267A1.269,1.269,0,0,1,97.261,427.361Z" transform="translate(-78.353 -354.419)"/><path d="M209.9,28.876a2.207,2.207,0,0,1,.636,1.957l-.619,3.612a4.641,4.641,0,0,0,6.742,4.9l3.247-1.706a2.2,2.2,0,0,1,2.054,0l3.245,1.7a4.647,4.647,0,0,0,6.743-4.9l-.619-3.613a2.209,2.209,0,0,1,.634-1.956l2.627-2.558a4.647,4.647,0,0,0-2.575-7.926l-1.217-.177a1.219,1.219,0,1,0-.351,2.412l1.218.177a2.209,2.209,0,0,1,1.224,3.768l-2.627,2.559a4.646,4.646,0,0,0-1.335,4.114l.619,3.612a2.209,2.209,0,0,1-3.206,2.33l-3.243-1.7a4.633,4.633,0,0,0-4.325,0l-3.246,1.7a2.209,2.209,0,0,1-3.206-2.329l.619-3.611A4.643,4.643,0,0,0,211.6,27.13l-2.624-2.557A2.209,2.209,0,0,1,210.2,20.8l3.629-.528a4.644,4.644,0,0,0,3.5-2.542l1.624-3.289a2.209,2.209,0,0,1,3.961,0l1.623,3.287a4.627,4.627,0,0,0,.612.936,1.219,1.219,0,0,0,1.863-1.572,2.181,2.181,0,0,1-.289-.442L225.1,13.368a4.646,4.646,0,0,0-8.333,0l-1.624,3.288a2.207,2.207,0,0,1-1.663,1.208l-3.628.528a4.646,4.646,0,0,0-2.575,7.926Z" transform="translate(-172.416 -9.696)"/><path d="M131.579,11.3l3.19,1.561a3.387,3.387,0,0,0,1.492.345,3.425,3.425,0,0,0,2.966-1.705l.164-.284a3.425,3.425,0,0,0-1.052-4.541L135.392,4.7a3.415,3.415,0,0,0-4.863,1.126l-.407.7a3.415,3.415,0,0,0,1.456,4.775Zm.655-3.556.407-.7a.967.967,0,0,1,.626-.463.989.989,0,0,1,.223-.026.966.966,0,0,1,.542.167L136.979,8.7a.98.98,0,0,1,.3,1.3l-.164.284a.98.98,0,0,1-1.276.389l-3.19-1.561a.978.978,0,0,1-.417-1.367Z" transform="translate(-108.595 -4.118)"/><path d="M413.091,161.074l-3.19-1.561a3.425,3.425,0,0,0-4.458,1.36l-.164.283h0a3.425,3.425,0,0,0,1.052,4.541l2.946,1.982a3.427,3.427,0,0,0,1.91.581,3.391,3.391,0,0,0,.767-.087,3.427,3.427,0,0,0,2.187-1.619l.407-.7a3.415,3.415,0,0,0-1.456-4.774Zm-.655,3.556-.407.7a.977.977,0,0,1-1.392.322l-2.946-1.982a.98.98,0,0,1-.3-1.3l.164-.284a.98.98,0,0,1,1.276-.389l3.19,1.561a.977.977,0,0,1,.417,1.367Z" transform="translate(-339.04 -133.972)"/><path d="M109.936,92.824a3.428,3.428,0,0,0,2.333.919c.077,0,.154,0,.231-.008l3.543-.243a3.425,3.425,0,0,0,3.181-3.407v-.327a3.425,3.425,0,0,0-3.181-3.407l-3.543-.243a3.415,3.415,0,0,0-3.648,3.407v.813A3.428,3.428,0,0,0,109.936,92.824Zm1.353-3.309a.977.977,0,0,1,.975-.977l.069,0,3.543.243a.98.98,0,0,1,.91.975v.327a.98.98,0,0,1-.91.975l-3.543.243a.977.977,0,0,1-1.044-.975Z" transform="translate(-91.163 -72.778)"/><path d="M431.174,86.11l-3.543.243a3.425,3.425,0,0,0-3.181,3.407v.327a3.425,3.425,0,0,0,3.181,3.407l3.543.243q.116.008.231.008a3.414,3.414,0,0,0,3.417-3.414v-.813a3.415,3.415,0,0,0-3.648-3.407Zm.9,2.692a.967.967,0,0,1,.31.714v.813a.977.977,0,0,1-1.044.975l-3.543-.243a.98.98,0,0,1-.91-.975v-.327a.98.98,0,0,1,.91-.975l3.543-.243.069,0a.968.968,0,0,1,.665.263Z" transform="translate(-355.476 -72.779)"/><path d="M134.769,159.512l-3.19,1.561a3.415,3.415,0,0,0-1.456,4.774l.407.7a3.416,3.416,0,0,0,4.863,1.126l2.947-1.982a3.425,3.425,0,0,0,1.051-4.541l-.164-.283h0A3.425,3.425,0,0,0,134.769,159.512Zm2.21,4.161-2.947,1.982a.977.977,0,0,1-1.391-.322l-.407-.7a.977.977,0,0,1,.417-1.366l3.19-1.561a.967.967,0,0,1,.427-.1.98.98,0,0,1,.849.488h0l.164.283A.979.979,0,0,1,136.979,163.673Z" transform="translate(-108.595 -133.971)"/><path d="M405.442,11.5a3.424,3.424,0,0,0,2.966,1.705,3.389,3.389,0,0,0,1.492-.345l3.19-1.561a3.415,3.415,0,0,0,1.456-4.774l-.407-.7A3.415,3.415,0,0,0,409.276,4.7L406.329,6.68a3.425,3.425,0,0,0-1.051,4.541Zm2.248-2.8,2.947-1.982a.966.966,0,0,1,.542-.167.989.989,0,0,1,.223.026.968.968,0,0,1,.626.463l.407.7a.977.977,0,0,1-.417,1.366l-3.189,1.561a.98.98,0,0,1-1.276-.389L407.389,10a.98.98,0,0,1,.3-1.3Z" transform="translate(-339.039 -4.118)"/></svg>